<svg version="1.1" xmlns="http://www.w3.org/2000/svg" viewBox="0 0 1024 1024">
<path d="M442.953 512l-172.648-172.642c-19.073-19.069-19.073-49.987 0-69.056s49.99-19.069 69.052 0l172.648 172.646 172.642-172.646c19.063-19.069 49.98-19.069 69.056 0 19.072 19.069 19.072 49.987 0 69.056l-172.646 172.642 172.646 172.642c19.072 19.068 19.072 49.988 0 69.056-19.076 19.068-49.993 19.068-69.056 0l-172.642-172.646-172.648 172.646c-19.062 19.068-49.979 19.068-69.052 0s-19.073-49.988 0-69.056l172.648-172.642z"></path>
</svg>
