<svg version="1.1" xmlns="http://www.w3.org/2000/svg" viewBox="0 0 24 24">
    <path d="M19.9,5.9c-0.1-0.1-0.2-0.1-0.3-0.1h-2c-0.1,0-0.2,0-0.3,0.1c-0.1,0.1-0.1,0.2-0.1,0.3v0.2h-3c0,0,0,0-0.1,0h-3.4 c-0.1,0-0.2,0-0.2,0.1L8.7,8.6C8.6,8.8,8.7,8.9,8.8,9c0,0,0.1,0.1,0.2,0.1h0.9v1.4l-0.7,0.7H8.7c-0.1,0-0.3,0.1-0.4,0.2 c-0.1,0.1-0.2,0.2-0.2,0.4v0.9c0,0.1,0.1,0.3,0.2,0.4c0.1,0.1,0.2,0.2,0.4,0.2h2.8c0.1,0,0.3-0.1,0.4-0.2c0.1-0.1,0.2-0.2,0.2-0.4 v-0.9c0-0.1-0.1-0.3-0.2-0.4c-0.1-0.1-0.2-0.2-0.4-0.2H11l-0.7-0.7V9.1h2.5v7.5h-1.6c-0.1,0-0.3,0.1-0.3,0.3V18 c0,0.1,0.1,0.3,0.3,0.3h5.9c0.1,0,0.3-0.1,0.3-0.3v-1.1c0-0.1-0.1-0.3-0.3-0.3h-1.6V9.1h1.7v0.1c0,0.1,0,0.2,0.1,0.3 c0.1,0.1,0.2,0.1,0.3,0.1h2c0.1,0,0.2,0,0.3-0.1C20,9.4,20,9.3,20,9.2v-3C20,6.1,20,6,19.9,5.9z M11.5,11.7v0.9H8.7v-0.9H11.5z M9.5,8.6L10.8,7L12,8.6H9.5z M11.3,6.9h2.3l-1.3,1.3L11.3,6.9z M16.9,17.1v0.6h-5.4v-0.6H16.9z M13.4,16.6V9.1H15v7.5H13.4z M12.6,8.6L14.2,7l1.6,1.6H12.6z M14.8,6.9h1.9L16,8.1L14.8,6.9z M17.2,8.6h-0.8l0.8-1.4V8.6z M19.5,9.1h-1.8V6.3h1.8V9.1z M7.6,14 H6.3v-2.2H5.8v0.6H4.5v-2.1H4v7.9h4.1v-5H7.6V14z M5.8,17.5H4.5v-1.3h1.3V17.5z M5.8,15.7H4.5v-1.3h1.3V15.7z M5.8,14H4.5v-1.1h1.3 V14z M7.6,17.6H6.3v-1.3h1.3V17.6z M7.6,15.8H6.3v-1.3h1.3V15.8z"/>
</svg>
