<svg version="1.1" xmlns="http://www.w3.org/2000/svg" viewBox="0 0 24 24">
    <path d="M17.6,4H6.4C5.1,4,4,4.9,4,6v12c0,1.1,1.1,2,2.4,2h11.1c1.3,0,2.4-0.9,2.4-2V6C20,4.9,18.9,4,17.6,4z M17.6,18.9H6.4 c-0.5,0-1-0.3-1-0.9V6c0.1-0.5,0.5-0.9,1-0.9h11.1c0.5,0,1,0.3,1,0.9v12h0.1C18.5,18.5,18.1,18.9,17.6,18.9z M7.5,7.5h9 c0.3,0,0.7-0.2,0.7-0.6c0-0.4-0.3-0.6-0.7-0.6h-9c-0.3,0-0.7,0.2-0.7,0.6C6.8,7.2,7.1,7.5,7.5,7.5z M7.5,9.8h9 c0.3,0,0.7-0.2,0.7-0.6c0-0.4-0.3-0.7-0.7-0.6h-9c-0.3,0-0.7,0.2-0.7,0.6C6.8,9.5,7.1,9.8,7.5,9.8z M16.8,10.9c-0.1,0-0.2,0-0.2,0 h-9C7.3,10.8,7,11,6.9,11.4C6.8,11.7,7,12,7.4,12.1c0.1,0,0.2,0,0.2,0h9c0.3,0.1,0.6-0.1,0.7-0.5C17.3,11.2,17.1,10.9,16.8,10.9z M11.5,13.1c-0.1,0-0.2,0-0.2,0H7.5c-0.3-0.1-0.6,0.1-0.7,0.5c-0.1,0.3,0.1,0.6,0.5,0.7c0.1,0,0.2,0,0.2,0h3.8 c0.3,0.1,0.6-0.1,0.7-0.5C12.1,13.5,11.8,13.2,11.5,13.1z"/>
</svg>
