<svg version="1.1" id="Layer_1" xmlns="http://www.w3.org/2000/svg" viewBox="0 0 24 24">
    <path d="M12,4c-4.4,0-8,3.6-8,8s3.6,8,8,8s8-3.6,8-8S16.4,4,12,4z M12.7,15.7c0,0.6-0.5,1-1.1,1c-0.6,0-1-0.4-1-1.1 c0-0.6,0.5-1,1.1-1C12.3,14.6,12.7,15,12.7,15.7z M14.5,11.1c-0.2,0.2-0.5,0.5-0.9,0.8l-0.5,0.3c-0.2,0.2-0.4,0.4-0.4,0.6 c0,0.1-0.1,0.4-0.1,0.7c0,0,0,0.1-0.2,0.1s-1.2,0-1.4,0s-0.2-0.1-0.2-0.1c0-0.6,0.1-1.1,0.4-1.5c0.3-0.5,1.3-1.1,1.3-1.1 c0.1-0.1,0.3-0.2,0.3-0.3c0.2-0.2,0.3-0.5,0.3-0.7c0-0.3-0.1-0.6-0.3-0.8c-0.2-0.3-0.5-0.4-0.9-0.4c-0.5,0-0.7,0.2-0.9,0.5 c-0.2,0.3-0.2,0.7-0.2,1H9.1c0-1.2,0.3-2,1-2.4c0.5-0.3,1-0.4,1.7-0.4c0.9,0,1.6,0.2,2.2,0.6c0.6,0.4,0.9,1.1,0.9,1.9 C14.9,10.3,14.7,10.8,14.5,11.1z"/>
</svg>
