<svg version="1.1" id="Layer_1" xmlns="http://www.w3.org/2000/svg" viewBox="0 0 24 24">
    <path d="M20,18.5v-2h-5.5V18H13v1.5h-1.8v-1H8.5v-11h9v3.8H17l0.3,2h0.2v0.3l0.2,0.3c0,0,0,0.1,0,0.1l-0.1,0c0,0,0,0-0.1,0l-0.4,0.3 c0.1,0.1,0.2,0.2,0.4,0.2c0,0,0,0,0.1,0c0.1,0,0.3,0,0.4-0.1c0.2-0.2,0.3-0.5,0.1-0.7L18,13.4v-0.2h0.2l0.3-2H18V7.5h1.8L19.4,6 h-1.6L8.5,4.5C8.4,4.2,8.1,4,7.8,4C7.4,4,7.1,4.3,7,4.6L5.9,6H4.6L4.2,7.5h1.6v4.8H5.2V13v0.5v0.3v0.5v0.3V15v0.3v0.5v0.8h1.5v-0.8 v-0.5V15v-0.5v-0.3v-0.5v-0.3V13v-0.8H6.2V7.5H7v11H4.8v1H4V20h0.8h6.5H13h5.5H20v-0.5h-1.5v-1H20z M17.8,12.8L17.8,12.8l-0.2-1H18 L17.8,12.8z M6.2,16H5.8v-0.3h0.5V16z M6.2,15.3H5.8V15h0.5V15.3z M6.2,14.5H5.8v-0.3h0.5V14.5z M6.2,13.8H5.8v-0.3h0.5V13.8z M5.8,13v-0.3h0.5V13H5.8z M14.7,6H8.5V5L14.7,6z M7.5,4.7c0-0.1,0.1-0.3,0.2-0.3S8,4.6,8,4.7V6H7.5V4.7z M7,5.4V6H6.5L7,5.4z M4.8,7l0.1-0.5H7h1.5h10.6L19.2,7H8.5H7H4.8z M7.5,7.5H8v11H7.5V7.5z M5.2,19.5V19H7h1.5h2.2v0.5H5.2z M15,17h4.5v1h-1H15V17z M18,19.5h-4.5v-1h1H18V19.5z"/>
</svg>
