<svg version="1.1" xmlns="http://www.w3.org/2000/svg" viewBox="0 0 24 24">
    <path d="M19.8,18.9h-1.3V8.5c0-0.1-0.1-0.2-0.2-0.2h-2.2c-0.1,0-0.2,0.1-0.2,0.2v10.4H15v-7.6c0-0.1-0.1-0.2-0.2-0.2h-2.2 c-0.1,0-0.2,0.1-0.2,0.2v7.6h-0.9v-14c0-0.1-0.1-0.2-0.2-0.2H9.2C9.1,4.7,9,4.8,9,4.9v14H8.1V6.2C8.1,6,8,6,7.9,6H5.7 C5.6,6,5.5,6,5.5,6.2v12.7H4.2C4.1,18.9,4,19,4,19.1c0,0.1,0.1,0.2,0.2,0.2h15.6c0.1,0,0.2-0.1,0.2-0.2C20,19,19.9,18.9,19.8,18.9z M16.3,8.8h1.7v10.1h-1.7V8.8z M14.6,11.5v1.3h-0.4c-0.1,0-0.2,0.1-0.2,0.2s0.1,0.2,0.2,0.2h0.4v1.3h-0.4c-0.1,0-0.2,0.1-0.2,0.2 c0,0.1,0.1,0.2,0.2,0.2h0.4v1.3h-0.4c-0.1,0-0.2,0.1-0.2,0.2c0,0.1,0.1,0.2,0.2,0.2h0.4V18h-0.4c-0.1,0-0.2,0.1-0.2,0.2 s0.1,0.2,0.2,0.2h0.4v0.4h-1.7v-1.3h0.4c0.1,0,0.2-0.1,0.2-0.2s-0.1-0.2-0.2-0.2h-0.4v-1.3h0.4c0.1,0,0.2-0.1,0.2-0.2 c0-0.1-0.1-0.2-0.2-0.2h-0.4v-1.3h0.4c0.1,0,0.2-0.1,0.2-0.2c0-0.1-0.1-0.2-0.2-0.2h-0.4v-1.3h0.4c0.1,0,0.2-0.1,0.2-0.2 c0-0.1-0.1-0.2-0.2-0.2h-0.4v-0.5H14.6z M9.4,5.1h1.7v13.8H9.4V5.1z M7.7,6.4v1.3H7.2C7.1,7.7,7,7.8,7,7.9C7,8,7.1,8.1,7.2,8.1h0.4 v1.3H7.2C7.1,9.4,7,9.5,7,9.6s0.1,0.2,0.2,0.2h0.4v1.3H7.2c-0.1,0-0.2,0.1-0.2,0.2s0.1,0.2,0.2,0.2h0.4v1.3H7.2 C7.1,12.9,7,13,7,13.1s0.1,0.2,0.2,0.2h0.4v1.3H7.2c-0.1,0-0.2,0.1-0.2,0.2C7,14.9,7.1,15,7.2,15h0.4v1.3H7.2 c-0.1,0-0.2,0.1-0.2,0.2c0,0.1,0.1,0.2,0.2,0.2h0.4V18H7.2C7.1,18,7,18.1,7,18.3s0.1,0.2,0.2,0.2h0.4v0.4H5.9v-1.3h0.4 c0.1,0,0.2-0.1,0.2-0.2s-0.1-0.2-0.2-0.2H5.9v-1.3h0.4c0.1,0,0.2-0.1,0.2-0.2c0-0.1-0.1-0.2-0.2-0.2H5.9v-1.3h0.4 c0.1,0,0.2-0.1,0.2-0.2c0-0.1-0.1-0.2-0.2-0.2H5.9v-1.3h0.4c0.1,0,0.2-0.1,0.2-0.2c0-0.1-0.1-0.2-0.2-0.2H5.9v-1.3h0.4 c0.1,0,0.2-0.1,0.2-0.2c0-0.1-0.1-0.2-0.2-0.2H5.9V9h0.4c0.1,0,0.2-0.1,0.2-0.2c0-0.1-0.1-0.2-0.2-0.2H5.9V7.2h0.4 c0.1,0,0.2-0.1,0.2-0.2c0-0.1-0.1-0.2-0.2-0.2H5.9V6.4H7.7z"/>
</svg>
