<svg version="1.1" xmlns="http://www.w3.org/2000/svg" viewBox="0 0 24 24">
    <path d="M12,4c-4.4,0-8,3.6-8,8c0,4.4,3.6,8,8,8c4.4,0,8-3.6,8-8C20,7.6,16.4,4,12,4z M12,19c-1.7,0-3.3-0.6-4.5-1.5 c0.5-0.2,1.1-0.3,1.6-0.4c0.7-0.1,1.2-0.9,1.5-1.6c-0.7-0.5-1.3-1.3-1.8-2.4c-0.2-0.2-0.4-0.5-0.5-0.9c-0.1-0.6,0-1,0.3-1 c0,0,0,0,0,0c0,0,0,0,0,0c-0.1-0.7-0.2-1.4,0-2.1c0-0.1,0.1-0.3,0.1-0.4c0.3-0.9,1.3-1.9,3.2-1.9c1.8,0,2.9,1,3.2,1.9 c0.1,0.1,0.1,0.3,0.1,0.4c0.1,0.7,0.1,1.4,0,2.1c0,0,0,0,0,0c0,0,0,0,0,0c0.3,0,0.5,0.4,0.3,1c-0.1,0.4-0.3,0.7-0.5,0.9 c-0.5,1.1-1.1,1.9-1.8,2.4c0.3,0.7,0.9,1.5,1.5,1.6c0.5,0.1,1.1,0.2,1.6,0.4C15.3,18.4,13.7,19,12,19z"/>
</svg>
