<svg version="1.1" xmlns="http://www.w3.org/2000/svg" viewBox="0 0 24 24">
    <path d="M18.5,12c0-0.1,0-0.3,0-0.4l1.6-1.1c-0.2-1.1-0.6-2.1-1.3-3l-1.9,0.3c-0.2-0.2-0.4-0.4-0.6-0.6l0.3-1.9 c-0.9-0.6-1.9-1-3-1.3l-1.1,1.6c-0.1,0-0.3,0-0.4,0s-0.3,0-0.4,0L10.5,4c-1.1,0.2-2.1,0.6-3,1.3l0.3,1.9C7.5,7.3,7.3,7.5,7.2,7.7 L5.3,7.4c-0.6,0.9-1,1.9-1.3,3l1.6,1.1c0,0.1,0,0.3,0,0.4c0,0.1,0,0.3,0,0.4L4,13.5c0.2,1.1,0.6,2.1,1.3,3l1.9-0.3 c0.2,0.2,0.4,0.4,0.6,0.6l-0.3,1.9c0.9,0.6,1.9,1,3,1.3l1.1-1.6c0.1,0,0.3,0,0.4,0s0.3,0,0.4,0l1.1,1.6c1.1-0.2,2.1-0.6,3-1.3 l-0.3-1.9c0.2-0.2,0.4-0.4,0.6-0.6l1.9,0.3c0.6-0.9,1-1.9,1.3-3l-1.6-1.1C18.4,12.3,18.5,12.1,18.5,12z M12.3,15.8 c-1.9,0-3.5-1.6-3.5-3.5c0-1.9,1.6-3.5,3.5-3.5c1.9,0,3.5,1.6,3.5,3.5C15.8,14.3,14.3,15.8,12.3,15.8z"/>
</svg>
